<svg version="1.1" xmlns="http://www.w3.org/2000/svg" xmlns:xlink="http://www.w3.org/1999/xlink"
     viewBox="0 0 166 27" enable-background="new 0 0 166 27" xml:space="preserve">
<g>
	<path d="M2.190918,24.8847656V2.0996094c0-0.3730469,0.1865234-0.699707,0.5600586-0.9799805
		C3.1240234,0.8398438,3.6025391,0.699707,4.1860352,0.699707h6.1948242c2.496582,0,4.4912109,0.6420898,5.9848633,1.9248047
		c1.4931641,1.2836914,2.2402344,3.3134766,2.2402344,6.090332v9.5551758c0,2.7768555-0.7470703,4.8061523-2.2402344,6.0893555
		c-1.4936523,1.2832031-3.4882812,1.9257812-5.9848633,1.9257812H4.1860352c-0.5834961,0-1.0620117-0.140625-1.4350586-0.4199219
		C2.3774414,25.5839844,2.190918,25.2578125,2.190918,24.8847656z M6.7407227,22.2949219h3.6401367
		c2.4501953,0,3.6748047-1.3417969,3.6748047-4.0249023V8.7148438c0-2.6831055-1.2246094-4.0253906-3.6748047-4.0253906H6.7407227
		V22.2949219z"/>
	<path d="M25.1621094,24.8496094V2.1347656c0-0.4428711,0.1977539-0.7929688,0.5947266-1.050293
		c0.3964844-0.2563477,0.8632812-0.3847656,1.4003906-0.3847656h12.4599609c0.4663086,0,0.8222656,0.1982422,1.0673828,0.5947266
		c0.2451172,0.3974609,0.3676758,0.8520508,0.3676758,1.3652344c0,0.5600586-0.1289062,1.0385742-0.3852539,1.4350586
		c-0.2568359,0.3969727-0.6069336,0.5947266-1.0498047,0.5947266h-9.9052734v7h5.3203125
		c0.4428711,0,0.7929688,0.1811523,1.0498047,0.5424805c0.2563477,0.3623047,0.3847656,0.7880859,0.3847656,1.2773438
		c0,0.4443359-0.1220703,0.8466797-0.3671875,1.2080078c-0.2451172,0.3623047-0.6010742,0.5419922-1.0673828,0.5419922h-5.3203125
		v7.0356445h9.9052734c0.4428711,0,0.7929688,0.1992188,1.0498047,0.5957031
		c0.2563477,0.3964844,0.3852539,0.875,0.3852539,1.4335938c0,0.5136719-0.1225586,0.96875-0.3676758,1.3652344
		s-0.6010742,0.5957031-1.0673828,0.5957031H27.1572266c-0.5371094,0-1.0039062-0.1289062-1.4003906-0.3847656
		C25.3598633,25.6425781,25.1621094,25.2929688,25.1621094,24.8496094z"/>
	<path d="M46.2158203,22.2597656c0-0.5371094,0.2041016-1.078125,0.612793-1.6269531
		c0.4077148-0.5488281,0.8686523-0.8222656,1.3823242-0.8222656c0.3032227,0,0.6474609,0.1445312,1.0327148,0.4355469
		c0.3847656,0.2910156,0.7578125,0.6132812,1.1196289,0.9628906c0.3618164,0.3515625,0.8808594,0.6738281,1.5576172,0.9648438
		s1.4228516,0.4355469,2.2402344,0.4355469c1.1196289,0,2.0527344-0.2558594,2.7998047-0.7695312
		c0.746582-0.5136719,1.1201172-1.2714844,1.1201172-2.2753906c0-0.699707-0.2045898-1.3237305-0.612793-1.8725586
		c-0.4082031-0.5478516-0.9448242-1.0029297-1.6098633-1.3642578c-0.6650391-0.3623047-1.3945312-0.7119141-2.1875-1.0507812
		c-0.793457-0.3378906-1.5922852-0.7167969-2.3974609-1.1367188c-0.8051758-0.4208984-1.5400391-0.8935547-2.2050781-1.4179688
		c-0.6650391-0.5249023-1.2021484-1.2250977-1.6098633-2.1000977c-0.4086914-0.875-0.6123047-1.8725586-0.6123047-2.9921875
		c0-1.2553711,0.2504883-2.362793,0.7524414-3.3217773c0.5014648-0.9594727,1.1723633-1.7050781,2.012207-2.237793
		c0.840332-0.5327148,1.7382812-0.9238281,2.6953125-1.1728516c0.956543-0.2480469,1.9711914-0.3725586,3.0449219-0.3725586
		c0.6064453,0,1.2480469,0.0419922,1.9248047,0.1254883c0.6767578,0.0844727,1.394043,0.222168,2.152832,0.4135742
		c0.7578125,0.1918945,1.3764648,0.4916992,1.8549805,0.8984375c0.4775391,0.4072266,0.7172852,0.8867188,0.7172852,1.4375
		c0,0.5195312-0.1635742,1.0571289-0.4902344,1.6123047s-0.7695312,0.8325195-1.3295898,0.8325195
		c-0.2099609,0-0.7822266-0.2216797-1.715332-0.6650391c-0.9335938-0.4428711-1.9716797-0.6650391-3.1147461-0.6650391
		c-1.2602539,0-2.2348633,0.2397461-2.9223633,0.7172852c-0.6889648,0.4785156-1.0327148,1.1376953-1.0327148,1.9775391
		c0,0.6772461,0.2797852,1.2661133,0.8398438,1.7675781c0.5600586,0.5019531,1.2539062,0.9101562,2.0825195,1.2250977
		c0.828125,0.3149414,1.7265625,0.7119141,2.6953125,1.1899414c0.9677734,0.4785156,1.8662109,0.9975586,2.6948242,1.5576172
		c0.828125,0.5595703,1.5224609,1.3710938,2.0825195,2.4326172s0.8398438,2.3046875,0.8398438,3.7270508
		c0,2.3925781-0.7646484,4.2402344-2.2924805,5.5410156c-1.5283203,1.2988281-3.5410156,1.9492188-6.0375977,1.9492188
		c-2.2167969,0-4.1181641-0.4550781-5.7045898-1.3652344C47.0087891,24.3242188,46.2158203,23.3339844,46.2158203,22.2597656z"/>
	<path d="M68.7114258,24.8496094v-22.75c0-0.4663086,0.2211914-0.8164062,0.6650391-1.0498047
		c0.4428711-0.2329102,0.9799805-0.3500977,1.6098633-0.3500977s1.1665039,0.1171875,1.6098633,0.3500977
		c0.4428711,0.2333984,0.6650391,0.5834961,0.6650391,1.0498047v22.75c0,0.4433594-0.2275391,0.7929688-0.6826172,1.0507812
		c-0.4545898,0.2558594-0.9858398,0.3847656-1.5922852,0.3847656c-0.6298828,0-1.1669922-0.1289062-1.6098633-0.3847656
		C68.9326172,25.6425781,68.7114258,25.2929688,68.7114258,24.8496094z"/>
	<path d="M79.8320312,18.4799805V8.7148438c0-2.7529297,0.7407227-4.777832,2.2226562-6.0727539
		c1.4814453-1.2949219,3.4238281-1.9423828,5.828125-1.9423828c2.4726562,0,4.484375,0.6069336,6.0371094,1.8198242
		c1.5507812,1.2138672,2.3271484,2.847168,2.3271484,4.8999023c0,0.840332-0.1806641,1.4121094-0.5419922,1.715332
		c-0.3623047,0.3032227-0.9394531,0.4550781-1.7324219,0.4550781c-1.4941406,0-2.2519531-0.4780273-2.2753906-1.4350586
		c-0.0703125-1.0263672-0.3623047-1.8603516-0.875-2.5024414c-0.5136719-0.6416016-1.4355469-0.9628906-2.765625-0.9628906
		c-2.4492188,0-3.6738281,1.3422852-3.6738281,4.0253906v9.7651367c0,2.684082,1.2128906,4.0239258,3.6386719,4.0239258
		c1.1669922,0,2.0712891-0.3378906,2.7128906-1.0136719c0.6416016-0.6777344,0.9628906-1.6796875,0.9628906-3.0102539v-2.0654297
		h-2.8349609c-0.4443359,0-0.7880859-0.1748047-1.0322266-0.5244141c-0.2460938-0.3505859-0.3671875-0.7705078-0.3671875-1.2607422
		c0-0.4658203,0.1269531-0.8798828,0.3847656-1.2421875c0.2558594-0.3613281,0.5947266-0.5429688,1.0146484-0.5429688H94.8125
		c0.4433594,0,0.7929688,0.1464844,1.0498047,0.4375c0.2568359,0.2919922,0.3847656,0.6367188,0.3847656,1.0332031v4.1650391
		c0,2.7758789-0.7470703,4.8071289-2.2392578,6.090332c-1.4941406,1.2832031-3.4892578,1.9238281-5.9863281,1.9238281
		c-2.4960938,0-4.4853516-0.640625-5.9667969-1.9238281C80.5727539,23.2871094,79.8320312,21.2558594,79.8320312,18.4799805z"/>
	<path d="M102.5449219,24.8496094V2.1347656c0-0.4667969,0.2207031-0.8227539,0.6650391-1.0673828
		c0.4423828-0.2451172,0.9794922-0.3676758,1.6103516-0.3676758c0.8398438,0,1.4804688,0.1518555,1.9238281,0.4550781
		s0.9335938,0.9570312,1.4707031,1.9599609l6.7548828,13.0546875V2.0996094c0-0.4663086,0.2216797-0.8164062,0.6650391-1.0498047
		c0.4433594-0.2329102,0.9804688-0.3500977,1.609375-0.3500977c0.6308594,0,1.1669922,0.1171875,1.6113281,0.3500977
		c0.4423828,0.2333984,0.6640625,0.5834961,0.6640625,1.0498047v22.75c0,0.4433594-0.2265625,0.7929688-0.6816406,1.0507812
		c-0.4550781,0.2558594-0.9863281,0.3847656-1.59375,0.3847656c-1.2363281,0-2.1113281-0.4785156-2.625-1.4355469
		l-7.5244141-14.0698242v14.0698242c0,0.4433594-0.2275391,0.7929688-0.6826172,1.0507812
		c-0.4550781,0.2558594-0.9863281,0.3847656-1.5917969,0.3847656c-0.6308594,0-1.1679688-0.1289062-1.6103516-0.3847656
		C102.765625,25.6425781,102.5449219,25.2929688,102.5449219,24.8496094z"/>
	<path d="M126.3251953,24.8496094V2.1347656c0-0.4428711,0.1982422-0.7929688,0.5947266-1.050293
		c0.3964844-0.2563477,0.8632812-0.3847656,1.4003906-0.3847656h12.4599609c0.4658203,0,0.8222656,0.1982422,1.0673828,0.5947266
		c0.2451172,0.3974609,0.3671875,0.8520508,0.3671875,1.3652344c0,0.5600586-0.1289062,1.0385742-0.3847656,1.4350586
		c-0.2568359,0.3969727-0.6074219,0.5947266-1.0498047,0.5947266H130.875v7h5.3203125
		c0.4433594,0,0.7929688,0.1811523,1.0498047,0.5424805c0.2568359,0.3623047,0.3847656,0.7880859,0.3847656,1.2773438
		c0,0.4443359-0.1220703,0.8466797-0.3671875,1.2080078c-0.2451172,0.3623047-0.6005859,0.5419922-1.0673828,0.5419922H130.875
		v7.0356445h9.9052734c0.4423828,0,0.7929688,0.1992188,1.0498047,0.5957031
		c0.2558594,0.3964844,0.3847656,0.875,0.3847656,1.4335938c0,0.5136719-0.1220703,0.96875-0.3671875,1.3652344
		s-0.6015625,0.5957031-1.0673828,0.5957031h-12.4599609c-0.5371094,0-1.0039062-0.1289062-1.4003906-0.3847656
		C126.5234375,25.6425781,126.3251953,25.2929688,126.3251953,24.8496094z"/>
	<path d="M148.0585938,24.8496094v-22.75c0-0.3730469,0.1396484-0.699707,0.4199219-0.9799805
		c0.2792969-0.2797852,0.6289062-0.4199219,1.0488281-0.4199219h6.9306641c5.5302734,0,8.2949219,2.4384766,8.2949219,7.3149414
		c0,1.9135742-0.4150391,3.4536133-1.2421875,4.6206055c-0.8291016,1.1660156-1.9423828,1.9589844-3.3427734,2.3798828
		l4.5849609,8.5043945c0.1162109,0.140625,0.1748047,0.328125,0.1748047,0.5605469c0,0.5839844-0.3027344,1.125-0.9101562,1.6269531
		c-0.6064453,0.5019531-1.2480469,0.7519531-1.9248047,0.7519531s-1.2021484-0.3613281-1.5751953-1.0839844l-4.9697266-9.6606445
		h-2.9404297v9.1352539c0,0.4433594-0.2216797,0.7929688-0.6640625,1.0507812
		c-0.4433594,0.2558594-0.9804688,0.3847656-1.6103516,0.3847656c-0.6064453,0-1.1376953-0.1289062-1.5927734-0.3847656
		C148.2851562,25.6425781,148.0585938,25.2929688,148.0585938,24.8496094z M152.6074219,12.1445312h3.8505859
		c2.4970703,0,3.7451172-1.2363281,3.7451172-3.7099609c0-2.496582-1.2480469-3.7451172-3.7451172-3.7451172h-3.8505859V12.1445312z
		"/>
</g>
</svg>
