<svg version="1.1" xmlns="http://www.w3.org/2000/svg" xmlns:xlink="http://www.w3.org/1999/xlink"
     viewBox="0 0 60 60" enable-background="new 0 0 60 60" xml:space="preserve">
    <rect fill="#FFFFFF" x="0" y="0" width="60" height="60"/>
    <path fill="#BC2D29" d="M0,0v60h60V0H0z M21.5644531,42.3134766c-1.6757812-0.4785156-2.7470703-1.1962891-3.2241211-2.1552734
	c-0.3886719-0.6865234-0.5771484-1.9736328-0.5771484-3.8564453v-9.0195312c0-1.1362305-0.0664062-1.8994141-0.1845703-2.2871094
	c-0.2412109-0.8691406-0.78125-1.3022461-1.6186523-1.3022461c-0.1206055,0-0.2880859,0.0463867-0.4960938,0.1333008
	l-0.4052734-0.5375977l4.1293945-4.2182617c1.2851562,0.8393555,2.1586914,1.706543,2.637207,2.6035156
	c0.4506836,0.8681641,0.6645508,2.0786133,0.6645508,3.6342773v9.3774414c0,2.421875,0.5478516,3.6337891,1.625,3.6337891
	c0.2983398,0,0.6147461-0.1044922,0.9453125-0.3134766l0.4516602,0.5839844L21.5644531,42.3134766z M26.7177734,40.1582031
	c-0.3891602-0.6865234-0.5776367-1.9736328-0.5776367-3.8564453v-9.0195312c0-1.1362305-0.065918-1.8994141-0.1850586-2.2871094
	c-0.2387695-0.8691406-0.78125-1.3022461-1.6171875-1.3022461c-0.1201172,0-0.2871094,0.0463867-0.4951172,0.1333008
	L23.4375,23.2885742l4.128418-4.2182617c1.2851562,0.8393555,2.159668,1.706543,2.6367188,2.6035156
	c0.4506836,0.8681641,0.6660156,2.0786133,0.6660156,3.6342773v9.3774414c0,2.421875,0.5463867,3.6337891,1.6225586,3.6337891
	c0.2988281,0,0.6181641-0.1044922,0.9462891-0.3134766l0.453125,0.5839844l-3.9482422,3.7236328
	C28.2680664,41.8349609,27.1953125,41.1171875,26.7177734,40.1582031z M42.7216797,16.1137695l-3.0595703-2.6914062
	c0,0-0.4160156,1.6176758-0.4160156,10.6865234c0,3.809082,0,14.3393555,0,14.3393555
	c0,2.6044922-0.5449219,4.7041016-1.7597656,6.2949219c-1.1005859,1.4189453-2.8623047,2.75-5.3232422,3.9941406
	l-0.3496094-0.6083984c1.7646484-0.9824219,2.8701172-3.7480469,2.8701172-6.8144531V23.534668
	c0-2.34375-0.5634766-3.5166016-1.6933594-3.5166016c-0.203125,0-0.4052734,0.0585938-0.609375,0.1748047l-0.3466797-0.6079102
	l9.8691406-9.9824219l3.7802734,3.3432617L42.7216797,16.1137695z"/>
</svg>
