<svg version="1.1" xmlns="http://www.w3.org/2000/svg" xmlns:xlink="http://www.w3.org/1999/xlink"
     viewBox="0 0 650 87" enable-background="new 0 0 650 87" xml:space="preserve">
<g>
	<path d="M4.6401367,6.230957c0-0.659668,0.2783203-1.2099609,0.8349609-1.6499023
		C6.0322266,4.1411133,6.637207,3.9208984,7.2905273,3.9208984c1.2373047,0,1.9848633,0.6069336,2.2460938,1.8183594
		l19.4716797,69.5205078l11.3027344-41.9980469c0.3554688-1.3730469,1.3164062-2.0605469,2.8837891-2.0605469
		c1.5678711,0,2.5644531,0.7973633,2.9926758,2.3925781l11.5498047,41.6894531L77.0854492,5.40625
		c0.2885742-0.9902344,1.1206055-1.4853516,2.4956055-1.4853516c0.7236328,0,1.3935547,0.2080078,2.0092773,0.6206055
		c0.6152344,0.4140625,0.9228516,0.9316406,0.9228516,1.550293c0,0.2768555-0.0380859,0.5175781-0.1098633,0.7236328
		L60.7900391,82.8115234c-0.4365234,1.4541016-1.4921875,2.1796875-3.1645508,2.1796875
		c-1.7460938,0-2.7290039-0.5986328-2.9458008-1.7939453L43.2895508,41.675293L31.9868164,82.8222656
		c-0.3212891,1.4472656-1.2182617,2.1689453-2.6914062,2.1689453c-1.4746094,0-2.371582-0.6669922-2.6914062-2.0009766
		L4.75,7.0009766C4.6762695,6.78125,4.6401367,6.5249023,4.6401367,6.230957z"/>
	<path d="M104.8823242,81.9111328V6.230957c0-1.5400391,0.9160156-2.3100586,2.75-2.3100586
		c1.8320312,0,2.75,0.7700195,2.75,2.3100586v75.6801758c0,1.6142578-0.9179688,2.4199219-2.75,2.4199219
		C105.7983398,84.3310547,104.8823242,83.5253906,104.8823242,81.9111328z"/>
	<path d="M135.8354492,81.9111328V6.230957c0-1.5400391,0.9160156-2.3100586,2.75-2.3100586
		c1.8320312,0,2.75,0.7700195,2.75,2.3100586v72.8198242h32.4501953c1.3920898,0,2.0898438,0.8808594,2.0898438,2.640625
		s-0.6977539,2.6396484-2.0898438,2.6396484h-35.3100586C136.715332,84.3310547,135.8354492,83.5253906,135.8354492,81.9111328z"/>
	<path d="M197.5,81.9111328V6.230957c0-1.5400391,0.9160156-2.3100586,2.75-2.3100586
		c1.8320312,0,2.75,0.7700195,2.75,2.3100586v72.8198242h32.4501953c1.3920898,0,2.0898438,0.8808594,2.0898438,2.640625
		s-0.6977539,2.6396484-2.0898438,2.6396484h-35.3100586C198.3798828,84.3310547,197.5,83.5253906,197.5,81.9111328z"/>
	<path d="M298.0683594,73.5507812c0-0.7324219,0.2749023-1.4296875,0.8251953-2.0898438
		c0.5498047-0.6601562,1.1171875-0.9902344,1.7045898-0.9902344c0.4399414,0,1.1000977,0.4785156,1.9799805,1.4296875
		l2.9702148,3.1904297c1.1000977,1.1748047,2.8769531,2.2382812,5.3349609,3.1904297
		c2.4560547,0.953125,5.2973633,1.4296875,8.5249023,1.4296875c5.6464844,0,9.9726562-1.3925781,12.9804688-4.1796875
		c3.0058594-2.7861328,4.5097656-6.8925781,4.5097656-12.3203125c0-4.1054688-0.9179688-7.5161133-2.75-10.2299805
		c-1.8339844-2.7119141-4.1083984-4.6557617-6.8203125-5.8300781c-2.7138672-1.171875-5.6650391-2.3818359-8.8549805-3.6298828
		c-3.1899414-1.2460938-6.1425781-2.4750977-8.8549805-3.6850586c-2.7138672-1.2099609-4.987793-3.2070312-6.8198242-5.9951172
		c-1.8339844-2.7856445-2.75-6.3056641-2.75-10.5595703c0-3.8125,0.6962891-7.0576172,2.0898438-9.7353516
		c1.3920898-2.6757812,3.262207-4.6918945,5.6103516-6.0498047c2.3457031-1.355957,4.7109375-2.3100586,7.0947266-2.8598633
		c2.3823242-0.550293,4.9311523-0.8251953,7.6450195-0.8251953c4.4003906,0,8.4873047,0.6430664,12.2646484,1.9248047
		c3.7763672,1.2841797,5.6650391,2.7329102,5.6650391,4.3452148c0,0.6601562-0.2578125,1.3579102-0.7695312,2.0898438
		c-0.5136719,0.7338867-1.1005859,1.1000977-1.7597656,1.1000977c-0.3681641,0-1.1738281-0.347168-2.4199219-1.0449219
		c-1.2480469-0.6962891-3.0253906-1.3920898-5.3349609-2.0898438c-2.3105469-0.6962891-4.8955078-1.0454102-7.7548828-1.0454102
		c-4.7685547,0-8.7646484,1.0454102-11.9907227,3.1352539c-3.2275391,2.0898438-4.8398438,5.6289062-4.8398438,10.6147461
		c0,3.0078125,0.6772461,5.519043,2.0351562,7.5351562c1.355957,2.0180664,3.1157227,3.5751953,5.2797852,4.675293
		c2.1621094,1.0996094,4.5458984,2.0898438,7.1499023,2.9697266c2.6020508,0.8798828,5.2250977,1.8701172,7.8647461,2.9702148
		c2.640625,1.0996094,5.0410156,2.4575195,7.2050781,4.0698242c2.1621094,1.6137695,3.9228516,3.9047852,5.2802734,6.875
		c1.3564453,2.9702148,2.0351562,6.5444336,2.0351562,10.7250977c0,7.4794922-2.0351562,13.0732422-6.1054688,16.7744141
		c-4.0693359,3.7050781-9.5146484,5.5556641-16.3344727,5.5556641c-6.3081055,0-11.5332031-1.3564453-15.675293-4.0703125
		C300.1396484,78.2089844,298.0683594,75.7509766,298.0683594,73.5507812z"/>
	<path d="M365.5644531,81.9111328V6.230957c0-1.5400391,0.9160156-2.3100586,2.75-2.3100586
		c1.8320312,0,2.75,0.7700195,2.75,2.3100586v33.8798828h33.5498047V6.230957c0-1.5400391,0.9160156-2.3100586,2.75-2.3100586
		c1.8320312,0,2.75,0.7700195,2.75,2.3100586v75.6801758c0,1.6142578-0.9179688,2.4199219-2.75,2.4199219
		c-1.8339844,0-2.75-0.8056641-2.75-2.4199219V45.1708984h-33.5498047v36.7402344c0,1.6142578-0.9179688,2.4199219-2.75,2.4199219
		C366.4804688,84.3310547,365.5644531,83.5253906,365.5644531,81.9111328z"/>
	<path d="M434.9179688,61.890625V27.0209961c0-7.9921875,1.9970703-13.8408203,5.9951172-17.5449219
		c3.9960938-3.7021484,9.3671875-5.5551758,16.1152344-5.5551758c6.671875,0,12.0449219,1.8530273,16.1142578,5.5551758
		c4.0703125,3.7041016,6.1054688,9.5527344,6.1054688,17.5449219V61.890625c0,7.9941406-2.0351562,13.84375-6.1054688,17.5449219
		c-4.0693359,3.7050781-9.4423828,5.5556641-16.1142578,5.5556641c-6.7480469,0-12.1191406-1.8505859-16.1152344-5.5556641
		C436.9150391,75.734375,434.9179688,69.8847656,434.9179688,61.890625z M440.4179688,61.890625
		c0,11.8808594,5.5361328,17.8203125,16.6103516,17.8203125c5.3515625,0,9.4765625-1.484375,12.375-4.4550781
		c2.8955078-2.9697266,4.3447266-7.4248047,4.3447266-13.3652344V27.0209961c0-5.9399414-1.4492188-10.3950195-4.3447266-13.3647461
		c-2.8984375-2.9702148-7.0234375-4.4550781-12.375-4.4550781c-11.0742188,0-16.6103516,5.9399414-16.6103516,17.8198242V61.890625z
		"/>
	<path d="M498.9707031,6.230957c0-0.659668,0.2783203-1.2099609,0.8359375-1.6499023
		c0.5566406-0.4399414,1.1611328-0.6601562,1.8144531-0.6601562c1.2373047,0,1.9853516,0.6069336,2.2470703,1.8183594
		l19.4716797,69.5205078l11.3017578-41.9980469c0.3564453-1.3730469,1.3173828-2.0605469,2.8847656-2.0605469
		s2.5644531,0.7973633,2.9921875,2.3925781l11.5498047,41.6894531L571.4160156,5.40625
		c0.2890625-0.9902344,1.1210938-1.4853516,2.4960938-1.4853516c0.7236328,0,1.3935547,0.2080078,2.0087891,0.6206055
		c0.6152344,0.4140625,0.9228516,0.9316406,0.9228516,1.550293c0,0.2768555-0.0371094,0.5175781-0.109375,0.7236328
		l-21.6132812,75.9960938c-0.4365234,1.4541016-1.4921875,2.1796875-3.1640625,2.1796875
		c-1.7470703,0-2.7294922-0.5986328-2.9462891-1.7939453l-11.390625-41.5219727l-11.3017578,41.1469727
		c-0.3212891,1.4472656-1.21875,2.1689453-2.6914062,2.1689453c-1.4755859,0-2.3720703-0.6669922-2.6923828-2.0009766
		L499.0810547,7.0009766C499.0068359,6.78125,498.9707031,6.5249023,498.9707031,6.230957z"/>
	<path d="M599.2138672,81.9111328V6.230957c0-1.5400391,0.9160156-2.3100586,2.75-2.3100586
		c1.3916016,0,2.8955078,1.5039062,4.5097656,4.5102539l31.7900391,62.8100586V6.230957
		c0-1.5400391,0.9160156-2.3100586,2.75-2.3100586c1.8320312,0,2.75,0.7700195,2.75,2.3100586v75.6801758
		c0,1.6142578-0.9179688,2.4199219-2.75,2.4199219c-1.1738281,0-2.4941406-1.3564453-3.9599609-4.0693359l-32.3398438-63.3608398
		v65.0102539c0,1.6142578-0.9179688,2.4199219-2.75,2.4199219
		C600.1298828,84.3310547,599.2138672,83.5253906,599.2138672,81.9111328z"/>
</g>
</svg>
