<svg version="1.1" xmlns="http://www.w3.org/2000/svg" xmlns:xlink="http://www.w3.org/1999/xlink"
     viewBox="0 0 60 60" enable-background="new 0 0 60 60" xml:space="preserve">
<rect fill="#BC2D29" width="60" height="60"/>
<path fill="#FFFFFF" d="M42.671875,10.3364258l-9.8691406,9.9824219l0.3457031,0.6079102
	c0.2050781-0.1162109,0.40625-0.1748047,0.609375-0.1748047c1.1308594,0,1.6933594,1.1728516,1.6933594,3.5166016v10.9003906
	c0,1.0263672-0.8183594,1.8359375-1.2460938,2.0791016c-0.328125,0.2089844-0.6464844,0.3134766-0.9453125,0.3134766
	c-1.0761719,0-1.6230469-1.2119141-1.6230469-3.6337891V24.550293c0-1.5556641-0.2148438-2.7661133-0.6660156-3.6342773
	c-0.4765625-0.8969727-1.3520508-1.7641602-2.637207-2.6035156l-4.1289062,4.2182617l0.40625,0.5375977
	c0.2070312-0.0869141,0.375-0.1333008,0.4941406-0.1333008c0.8359375,0,1.3789062,0.4331055,1.6171875,1.3022461
	c0.1191406,0.3876953,0.1855469,1.1508789,0.1855469,2.2871094v8.8427734c0,0.8964844-0.6464844,1.6347656-1.0800781,1.8808594
	c-0.3300781,0.2089844-0.6464844,0.3134766-0.9453125,0.3134766c-1.0761719,0-1.625-1.2119141-1.625-3.6337891V24.550293
	c0-1.5556641-0.2128906-2.7661133-0.6640625-3.6342773c-0.4785156-0.8969727-1.3515625-1.7641602-2.6367188-2.6035156
	l-4.1308594,4.2182617l0.40625,0.5375977c0.2070312-0.0869141,0.375-0.1333008,0.4960938-0.1333008
	c0.8378906,0,1.3769531,0.4331055,1.6191406,1.3022461c0.1171875,0.3876953,0.1835938,1.1508789,0.1835938,2.2871094v9.0195312
	c0,1.8828125,0.1894531,3.1699219,0.578125,3.8564453c0.4765625,0.9589844,1.546875,1.6767578,3.2226562,2.1552734
	l4.6445312-4.3867188c0.0839844,1.0078125,0.2460938,1.7685547,0.5097656,2.2314453
	c0.4765625,0.9589844,1.5507812,1.6767578,3.2250977,2.1552734l4.7402344-4.4804688v3.4814453
	c0,3.0664062-1.1054688,5.8320312-2.8691406,6.8144531l0.3496094,0.6083984
	c2.4609375-1.2441406,4.2226562-2.5751953,5.3222656-3.9941406c1.2148438-1.5908203,1.7597656-3.6904297,1.7597656-6.2949219
	c0,0,0-9.0390625,0-12.8476562c0-9.0688477,0.4160156-10.6865234,0.4160156-10.6865234l3.0605469,2.6914062l2.9609375-3.1679688
	L42.671875,10.3364258z"/>
</svg>
