<?xml version="1.0" encoding="utf-8"?>
<!-- Generator: Adobe Illustrator 16.0.4, SVG Export Plug-In . SVG Version: 6.00 Build 0)  -->
<!DOCTYPE svg PUBLIC "-//W3C//DTD SVG 1.1//EN" "http://www.w3.org/Graphics/SVG/1.1/DTD/svg11.dtd">
<svg version="1.1" id="Layer_1" xmlns="http://www.w3.org/2000/svg" xmlns:xlink="http://www.w3.org/1999/xlink" x="0px" y="0px"
	 width="192px" height="29px" viewBox="0 0 192 29" enable-background="new 0 0 192 29" xml:space="preserve">
<g>
	<rect fill="none" width="194.1806641" height="36.2382812"/>
	<path fill="#27221F" d="M0.6166992,2.2480469c0-0.3383789,0.1992188-0.628418,0.5981445-0.8706055
		c0.3989258-0.2412109,0.815918-0.3623047,1.2509766-0.3623047c0.6040039,0,0.9790039,0.2299805,1.1240234,0.6889648
		l6.128418,21.5400391l3.4448242-13.2724609c0.1689453-0.6279297,0.6987305-0.9423828,1.590332-0.9423828
		c0.8432617,0,1.3491211,0.3154297,1.5180664,0.9453125L19.753418,23.246582l6.09375-21.5449219
		c0.1455078-0.4575195,0.534668-0.6865234,1.1669922-0.6865234c0.4375,0,0.8510742,0.1210938,1.2402344,0.3632812
		c0.3886719,0.2421875,0.5834961,0.5332031,0.5834961,0.8720703c0,0.1455078-0.012207,0.2543945-0.0361328,0.3266602
		L21.644043,26.6879883c-0.2192383,0.7016602-0.8520508,1.0527344-1.8989258,1.0527344
		c-1.0957031,0-1.7290039-0.3481445-1.8989258-1.0439453l-3.1049805-11.9790039l-3.144043,11.9692383
		c-0.1938477,0.7026367-0.8095703,1.0537109-1.8481445,1.0537109c-1.0395508,0-1.6669922-0.3505859-1.8847656-1.0517578
		L0.6889648,2.5742188C0.6401367,2.4291992,0.6166992,2.3203125,0.6166992,2.2480469z"/>
	<path fill="#27221F" d="M32.4467773,26.4350586V2.0668945c0-0.3383789,0.1503906-0.5986328,0.453125-0.7797852
		c0.3022461-0.1816406,0.6582031-0.2719727,1.0698242-0.2719727c0.4106445,0,0.7670898,0.090332,1.0698242,0.2719727
		c0.3017578,0.1811523,0.453125,0.4414062,0.453125,0.7797852v24.3681641c0,0.3388672-0.1513672,0.6044922-0.453125,0.7978516
		c-0.3027344,0.1938477-0.6591797,0.2900391-1.0698242,0.2900391c-0.4116211,0-0.7675781-0.0961914-1.0698242-0.2900391
		C32.597168,27.0395508,32.4467773,26.7739258,32.4467773,26.4350586z"/>
	<path fill="#27221F" d="M40.2431641,26.4350586V2.0668945c0-0.3383789,0.1503906-0.5986328,0.453125-0.7797852
		c0.3022461-0.1816406,0.6582031-0.2719727,1.0698242-0.2719727c0.4106445,0,0.7670898,0.090332,1.0698242,0.2719727
		c0.3017578,0.1811523,0.453125,0.4414062,0.453125,0.7797852v22.7001953h9.8994141
		c0.3139648,0,0.5561523,0.1391602,0.7255859,0.4169922c0.168457,0.2783203,0.2539062,0.5981445,0.2539062,0.9609375
		s-0.0854492,0.6831055-0.2539062,0.9609375c-0.1694336,0.2783203-0.4116211,0.4169922-0.7255859,0.4169922H41.6210938
		c-0.362793,0-0.6835938-0.0961914-0.9609375-0.2900391C40.3818359,27.0395508,40.2431641,26.7739258,40.2431641,26.4350586z"/>
	<path fill="#27221F" d="M57.6811523,26.4350586V2.0668945c0-0.3383789,0.1503906-0.5986328,0.453125-0.7797852
		c0.3022461-0.1816406,0.6582031-0.2719727,1.0698242-0.2719727c0.4106445,0,0.7670898,0.090332,1.0698242,0.2719727
		c0.3017578,0.1811523,0.453125,0.4414062,0.453125,0.7797852v22.7001953h9.8994141
		c0.3139648,0,0.5561523,0.1391602,0.7255859,0.4169922c0.168457,0.2783203,0.2539062,0.5981445,0.2539062,0.9609375
		s-0.0854492,0.6831055-0.2539062,0.9609375c-0.1694336,0.2783203-0.4116211,0.4169922-0.7255859,0.4169922H59.059082
		c-0.362793,0-0.6835938-0.0961914-0.9609375-0.2900391C57.8198242,27.0395508,57.6811523,26.7739258,57.6811523,26.4350586z"/>
	<path fill="#27221F" d="M85.3198242,23.7880859c0-0.3867188,0.1386719-0.7617188,0.4169922-1.1245117
		c0.2773438-0.3623047,0.5859375-0.5439453,0.9248047-0.5439453c0.2172852,0,0.4951172,0.1513672,0.8339844,0.4536133
		c0.3378906,0.3022461,0.6889648,0.640625,1.0512695,1.0151367c0.362793,0.375,0.9306641,0.7133789,1.7045898,1.015625
		c0.7734375,0.3022461,1.6435547,0.453125,2.6108398,0.453125c1.5712891,0,2.8041992-0.3808594,3.6987305-1.1420898
		c0.894043-0.7617188,1.3413086-1.8793945,1.3413086-3.3544922c0-1.3291016-0.4111328-2.4116211-1.2324219-3.2456055
		c-0.8222656-0.8339844-1.8134766-1.46875-2.9736328-1.9038086c-1.1606445-0.4350586-2.3271484-0.9003906-3.4995117-1.3959961
		c-1.1728516-0.4951172-2.1699219-1.2568359-2.9912109-2.284668c-0.8222656-1.0268555-1.2329102-2.3505859-1.2329102-3.9707031
		c0-1.2700195,0.2412109-2.3759766,0.7250977-3.3168945c0.4833984-0.9404297,1.1298828-1.6494141,1.9399414-2.1259766
		c0.8095703-0.4760742,1.6499023-0.824707,2.5200195-1.0444336c0.8706055-0.2202148,1.8007812-0.3300781,2.7924805-0.3300781
		c1.4985352,0,2.9306641,0.2177734,4.296875,0.6518555c1.3652344,0.4345703,2.0488281,1.0366211,2.0488281,1.8061523
		c0,0.3398438-0.1210938,0.7041016-0.3623047,1.0932617c-0.2421875,0.3886719-0.5566406,0.5830078-0.9433594,0.5830078
		c-0.0966797,0-0.6523438-0.2294922-1.6679688-0.6889648c-1.0151367-0.4589844-2.1391602-0.6894531-3.3720703-0.6894531
		c-1.4750977,0-2.6655273,0.3027344-3.5717773,0.9067383c-0.9067383,0.6044922-1.3598633,1.5595703-1.3598633,2.8647461
		c0,1.1123047,0.4106445,2.0126953,1.2329102,2.7016602c0.8212891,0.6889648,1.8188477,1.2392578,2.9916992,1.6499023
		c1.171875,0.4111328,2.3388672,0.8828125,3.4990234,1.4140625c1.1601562,0.5322266,2.1513672,1.3842773,2.9736328,2.5566406
		c0.8212891,1.1728516,1.2324219,2.6655273,1.2324219,4.4785156c0,2.4907227-0.7246094,4.3701172-2.1748047,5.6391602
		c-1.4511719,1.2695312-3.3730469,1.9033203-5.7661133,1.9033203c-2.1518555,0-3.9707031-0.4511719-5.4575195-1.3535156
		C86.0629883,25.5576172,85.3198242,24.6665039,85.3198242,23.7880859z"/>
	<path fill="#27221F" d="M104.9150391,26.4350586V2.0668945c0-0.3383789,0.1513672-0.5986328,0.4541016-0.7797852
		c0.3017578-0.1816406,0.6582031-0.2719727,1.0693359-0.2719727s0.7675781,0.090332,1.0693359,0.2719727
		c0.3027344,0.1811523,0.4541016,0.4414062,0.4541016,0.7797852v10.4433594h9.8261719V2.0668945
		c0-0.3383789,0.1513672-0.5986328,0.4541016-0.7797852c0.3017578-0.1816406,0.6582031-0.2719727,1.0693359-0.2719727
		s0.7675781,0.090332,1.0693359,0.2719727c0.3027344,0.1811523,0.4541016,0.4414062,0.4541016,0.7797852v24.3681641
		c0,0.3388672-0.1513672,0.6044922-0.4541016,0.7978516c-0.3017578,0.1938477-0.6582031,0.2900391-1.0693359,0.2900391
		s-0.7675781-0.0961914-1.0693359-0.2900391c-0.3027344-0.1933594-0.4541016-0.4589844-0.4541016-0.7978516V15.0488281h-9.8261719
		v11.3862305c0,0.3388672-0.1513672,0.6044922-0.4541016,0.7978516c-0.3017578,0.1938477-0.6582031,0.2900391-1.0693359,0.2900391
		s-0.7675781-0.0961914-1.0693359-0.2900391C105.0664062,27.0395508,104.9150391,26.7739258,104.9150391,26.4350586z"/>
	<path fill="#27221F" d="M125.3886719,19.8354492V8.9204102c0-2.7319336,0.7080078-4.7324219,2.1220703-6.0014648
		c1.4140625-1.2695312,3.3056641-1.9038086,5.6748047-1.9038086s4.2666016,0.6342773,5.6933594,1.9038086
		c1.4257812,1.269043,2.1396484,3.2695312,2.1396484,6.0014648v10.9150391c0,2.7319336-0.7138672,4.7319336-2.1396484,6.0014648
		c-1.4267578,1.269043-3.3242188,1.9038086-5.6933594,1.9038086s-4.2607422-0.6347656-5.6748047-1.9038086
		C126.0966797,24.5673828,125.3886719,22.5673828,125.3886719,19.8354492z M128.4355469,19.8354492
		c0,3.4331055,1.5830078,5.1489258,4.75,5.1489258c1.5234375,0,2.7011719-0.4287109,3.5351562-1.2871094
		c0.8339844-0.8579102,1.2509766-2.1450195,1.2509766-3.8618164V8.9204102c0-1.7163086-0.4169922-3.0039062-1.2509766-3.8623047
		c-0.8339844-0.8574219-2.0117188-1.2871094-3.5351562-1.2871094c-3.1669922,0-4.75,1.7167969-4.75,5.1494141V19.8354492z"/>
	<path fill="#27221F" d="M143.8574219,2.2480469c0-0.3383789,0.1992188-0.628418,0.5986328-0.8706055
		c0.3984375-0.2412109,0.8154297-0.3623047,1.2509766-0.3623047c0.6035156,0,0.9794922,0.2299805,1.1240234,0.6889648
		l6.1279297,21.5400391l3.4453125-13.2724609c0.1689453-0.6279297,0.6982422-0.9423828,1.5908203-0.9423828
		c0.8427734,0,1.3486328,0.3154297,1.5175781,0.9453125l3.4814453,13.2719727l6.09375-21.5449219
		c0.1455078-0.4575195,0.5351562-0.6865234,1.1679688-0.6865234c0.4365234,0,0.8505859,0.1210938,1.2402344,0.3632812
		c0.3886719,0.2421875,0.5830078,0.5332031,0.5830078,0.8720703c0,0.1455078-0.0126953,0.2543945-0.0361328,0.3266602
		l-7.1582031,24.1108398c-0.21875,0.7016602-0.8515625,1.0527344-1.8984375,1.0527344
		c-1.0957031,0-1.7294922-0.3481445-1.8994141-1.0439453l-3.1044922-11.9790039l-3.1445312,11.9692383
		c-0.1933594,0.7026367-0.8095703,1.0537109-1.8476562,1.0537109c-1.0390625,0-1.6669922-0.3505859-1.8847656-1.0517578
		l-7.1748047-24.1147461C143.8818359,2.4291992,143.8574219,2.3203125,143.8574219,2.2480469z"/>
	<path fill="#27221F" d="M175.6875,26.4350586V2.0668945c0-0.7011719,0.5078125-1.0517578,1.5234375-1.0517578
		c0.5078125,0,0.9365234,0.1513672,1.2871094,0.453125c0.3505859,0.3027344,0.6943359,0.7919922,1.0332031,1.46875
		l9.0292969,17.659668V2.0668945c0-0.3383789,0.1513672-0.5986328,0.4541016-0.7797852
		c0.3017578-0.1816406,0.6582031-0.2719727,1.0693359-0.2719727s0.7675781,0.090332,1.0693359,0.2719727
		c0.3027344,0.1811523,0.4541016,0.4414062,0.4541016,0.7797852v24.3681641c0,0.3388672-0.1513672,0.6044922-0.4541016,0.7978516
		c-0.3017578,0.1938477-0.6582031,0.2900391-1.0693359,0.2900391c-0.7744141,0-1.4140625-0.4589844-1.921875-1.3779297
		L178.734375,7.9047852v18.5302734c0,0.3388672-0.1513672,0.6044922-0.4541016,0.7978516
		c-0.3017578,0.1938477-0.6582031,0.2900391-1.0693359,0.2900391s-0.7675781-0.0961914-1.0693359-0.2900391
		C175.8388672,27.0395508,175.6875,26.7739258,175.6875,26.4350586z"/>
</g>
<g>
</g>
<g>
</g>
<g>
</g>
<g>
</g>
<g>
</g>
<g>
</g>
</svg>
